{
    "asset" : {
        "generator" : "Khronos glTF Blender I/O v1.6.16",
        "version" : "2.0"
    },
    "scene" : 0,
    "scenes" : [
        {
            "name" : "Scene",
            "nodes" : [
                10,
                11,
                12
            ]
        }
    ],
    "nodes" : [
        {
            "mesh" : 0,
            "name" : "Mesh_0",
            "scale" : [
                0.5,
                0.5,
                0.5
            ]
        },
        {
            "children" : [
                0
            ],
            "name" : "Cup_0",
            "scale" : [
                0.6355981230735779,
                0.4100872576236725,
                0.6355981230735779
            ],
            "translation" : [
                -0.0008470073225907981,
                -0.08254414796829224,
                0
            ]
        },
        {
            "mesh" : 1,
            "name" : "Mesh_1",
            "scale" : [
                0.5,
                0.5,
                0.5
            ]
        },
        {
            "children" : [
                2
            ],
            "name" : "Lid_1",
            "rotation" : [
                0,
                -0.7071068286895752,
                0,
                0.7071067094802856
            ],
            "scale" : [
                1.035852074623108,
                0.6278299689292908,
                1.035852074623108
            ],
            "translation" : [
                0,
                0.7243560552597046,
                -0.0008470072643831372
            ]
        },
        {
            "mesh" : 2,
            "name" : "Mesh_2",
            "scale" : [
                0.5,
                0.5,
                0.5
            ]
        },
        {
            "children" : [
                4
            ],
            "name" : "Sleeve_2",
            "scale" : [
                0.6355981230735779,
                0.4100872576236725,
                0.6355981230735779
            ],
            "translation" : [
                -0.0008470073225907981,
                -1.000125527381897,
                0
            ]
        },
        {
            "children" : [
                1,
                3,
                5
            ],
            "name" : "Coffe Cup_Parent_3",
            "scale" : [
                1.5733212232589722,
                2.4385054111480713,
                1.5733212232589722
            ],
            "translation" : [
                0,
                2.4388115406036377,
                0
            ]
        },
        {
            "children" : [
                6
            ],
            "name" : "GLTF_SceneRootNode",
            "rotation" : [
                0.7071068286895752,
                0,
                0,
                0.7071068286895752
            ]
        },
        {
            "children" : [
                7
            ],
            "name" : "root"
        },
        {
            "children" : [
                8
            ],
            "name" : "RootNode (model correction matrix)"
        },
        {
            "children" : [
                9
            ],
            "name" : "RootNode (gltf orientation matrix)",
            "rotation" : [
                -0.7071068286895752,
                0,
                0,
                0.7071068286895752
            ]
        },
        {
            "name" : "Light",
            "rotation" : [
                0.16907575726509094,
                0.7558803558349609,
                -0.27217137813568115,
                0.570947527885437
            ],
            "translation" : [
                4.076245307922363,
                5.903861999511719,
                -1.0054539442062378
            ]
        },
        {
            "name" : "Camera",
            "rotation" : [
                0.483536034822464,
                0.33687159419059753,
                -0.20870360732078552,
                0.7804827094078064
            ],
            "translation" : [
                7.358891487121582,
                4.958309173583984,
                6.925790786743164
            ]
        }
    ],
    "materials" : [
        {
            "doubleSided" : true,
            "name" : "material",
            "pbrMetallicRoughness" : {
                "baseColorFactor" : [
                    0.9213560223579407,
                    0.1397988200187683,
                    0.1397988200187683,
                    1
                ]
            }
        },
        {
            "doubleSided" : true,
            "name" : "material_1",
            "pbrMetallicRoughness" : {
                "baseColorFactor" : [
                    0.800000011920929,
                    0.800000011920929,
                    0.800000011920929,
                    1
                ],
                "metallicFactor" : 0,
                "roughnessFactor" : 0.5
            }
        },
        {
            "doubleSided" : true,
            "name" : "Sleeve",
            "pbrMetallicRoughness" : {
                "baseColorFactor" : [
                    1,
                    0.8732783794403076,
                    0.5612388253211975,
                    1
                ]
            }
        }
    ],
    "meshes" : [
        {
            "name" : "Mesh_0",
            "primitives" : [
                {
                    "attributes" : {
                        "POSITION" : 0,
                        "NORMAL" : 1
                    },
                    "indices" : 2,
                    "material" : 0
                }
            ]
        },
        {
            "name" : "Mesh_1",
            "primitives" : [
                {
                    "attributes" : {
                        "POSITION" : 3,
                        "NORMAL" : 4
                    },
                    "indices" : 5,
                    "material" : 1
                }
            ]
        },
        {
            "name" : "Mesh_2",
            "primitives" : [
                {
                    "attributes" : {
                        "POSITION" : 6,
                        "NORMAL" : 7
                    },
                    "indices" : 8,
                    "material" : 2
                }
            ]
        }
    ],
    "accessors" : [
        {
            "bufferView" : 0,
            "componentType" : 5126,
            "count" : 1062,
            "max" : [
                1.5521727800369263,
                2.2375271320343018,
                1.5521727800369263
            ],
            "min" : [
                -1.5521727800369263,
                -2.2375271320343018,
                -1.5521727800369263
            ],
            "type" : "VEC3"
        },
        {
            "bufferView" : 1,
            "componentType" : 5126,
            "count" : 1062,
            "type" : "VEC3"
        },
        {
            "bufferView" : 2,
            "componentType" : 5123,
            "count" : 5376,
            "type" : "SCALAR"
        },
        {
            "bufferView" : 3,
            "componentType" : 5126,
            "count" : 3108,
            "max" : [
                0.9781390428543091,
                0.42822521924972534,
                0.9781391024589539
            ],
            "min" : [
                -0.9781390428543091,
                0.015947990119457245,
                -0.9781390428543091
            ],
            "type" : "VEC3"
        },
        {
            "bufferView" : 4,
            "componentType" : 5126,
            "count" : 3108,
            "type" : "VEC3"
        },
        {
            "bufferView" : 5,
            "componentType" : 5123,
            "count" : 9600,
            "type" : "SCALAR"
        },
        {
            "bufferView" : 6,
            "componentType" : 5126,
            "count" : 384,
            "max" : [
                1.413984775543213,
                3.2974424362182617,
                1.413984775543213
            ],
            "min" : [
                -1.413984775543213,
                1.180296540260315,
                -1.413984775543213
            ],
            "type" : "VEC3"
        },
        {
            "bufferView" : 7,
            "componentType" : 5126,
            "count" : 384,
            "type" : "VEC3"
        },
        {
            "bufferView" : 8,
            "componentType" : 5123,
            "count" : 2304,
            "type" : "SCALAR"
        }
    ],
    "bufferViews" : [
        {
            "buffer" : 0,
            "byteLength" : 12744,
            "byteOffset" : 0
        },
        {
            "buffer" : 0,
            "byteLength" : 12744,
            "byteOffset" : 12744
        },
        {
            "buffer" : 0,
            "byteLength" : 10752,
            "byteOffset" : 25488
        },
        {
            "buffer" : 0,
            "byteLength" : 37296,
            "byteOffset" : 36240
        },
        {
            "buffer" : 0,
            "byteLength" : 37296,
            "byteOffset" : 73536
        },
        {
            "buffer" : 0,
            "byteLength" : 19200,
            "byteOffset" : 110832
        },
        {
            "buffer" : 0,
            "byteLength" : 4608,
            "byteOffset" : 130032
        },
        {
            "buffer" : 0,
            "byteLength" : 4608,
            "byteOffset" : 134640
        },
        {
            "buffer" : 0,
            "byteLength" : 4608,
            "byteOffset" : 139248
        }
    ],
    "buffers" : [
        {
            "byteLength" : 143856,
            "uri" : "data:application/octet-stream;base64,"
        }
    ]
}
